<?xml version="1.0" encoding="UTF-8"?>
<svg id="Layer_1" data-name="Layer 1" xmlns="http://www.w3.org/2000/svg" viewBox="0 0 430.19 302.87">
  <defs>
    <style>
      .cls-1 {
        fill: #123f6d;
      }
    </style>
  </defs>
  <g>
    <polygon class="cls-1" points="338.53 128.78 338.53 77.03 319.89 77.03 315.88 68.13 370.38 68.13 366.33 77.03 347.71 77.03 347.71 128.78 338.53 128.78"/>
    <path class="cls-1" d="M219.76,128.76c-9.42,0-16.91-2.74-22.87-8.37l5.97-6c5.06,3.54,10.47,5.19,16.99,5.19s12.94-3.14,12.94-8.95-6.78-7.66-12.23-9.03c-10.92-2.67-21.58-6.25-21.58-17.94,0-5.17,2.21-9.5,6.4-12.55,3.78-2.75,8.91-4.26,14.47-4.26.7,0,1.4.02,2.09.05,3.79.19,7.39.95,10.72,2.24,1.67.65,3.34,1.46,4.96,2.41.45.26,3.14,2.11,3.87,2.81-.49.49-1.92,1.93-6.05,6.09-4.89-3.18-9.3-4.42-15.59-4.42-4.37,0-10.87,2.01-10.87,7.54,0,5.02,4.95,6.65,12.51,8.56,10.67,2.61,21.58,6.86,21.58,18.51,0,5.73-2.54,10.48-7.34,13.73-4.19,2.84-9.86,4.4-15.97,4.4Z"/>
    <path class="cls-1" d="M162,128.76c-9.42,0-16.91-2.74-22.87-8.37l5.97-6c5.06,3.54,10.47,5.19,16.99,5.19s12.94-3.14,12.94-8.95-6.78-7.66-12.23-9.03c-10.92-2.67-21.58-6.25-21.58-17.94,0-5.17,2.21-9.5,6.4-12.55,3.78-2.75,8.92-4.26,14.47-4.26.7,0,1.4.02,2.09.05,3.79.19,7.4.95,10.72,2.24,1.67.65,3.34,1.46,4.96,2.41.45.26,3.14,2.11,3.87,2.81-.49.49-1.92,1.93-6.05,6.09-4.89-3.18-9.3-4.42-15.59-4.42-4.37,0-10.87,2.01-10.87,7.54,0,5.02,4.95,6.65,12.51,8.56,10.67,2.61,21.58,6.86,21.58,18.51,0,5.73-2.54,10.48-7.34,13.73-4.19,2.84-9.86,4.4-15.97,4.4Z"/>
    <g>
      <polygon class="cls-1" points="258.88 128.79 258.88 68.13 304.83 68.11 300.78 77.02 267.64 77.02 267.64 119.89 300.82 119.89 304.83 128.8 258.88 128.79"/>
      <rect class="cls-1" x="274.3" y="94.17" width="20.27" height="8.9"/>
    </g>
    <polygon class="cls-1" points="103.38 68.13 91.08 68.13 63.73 128.78 74.11 128.78 97.23 77.52 108.75 103.07 93.03 103.07 88.98 112.05 112.8 112.05 120.35 128.78 130.74 128.78 103.38 68.13"/>
  </g>
  <g>
    <g>
      <path class="cls-1" d="M202.62,171.24c1.46.72,3.98.81,5.48.17.86-.37,1.6-.87,2.25-1.53.63-.65,1.11-1.38,1.48-2.22.34-.82.52-1.71.52-2.66s-.18-1.83-.52-2.67c-.36-.83-.84-1.56-1.48-2.21-.63-.64-1.35-1.13-2.18-1.49-.81-.35-1.69-.53-2.62-.53s-1.8.18-2.63.53c-.82.36-1.54.85-2.18,1.5-.63.65-1.11,1.38-1.47,2.22-.34.83-.51,1.7-.51,2.66s.17,1.85.52,2.67c.36.83.84,1.56,1.48,2.22.55.56,1.17,1,1.87,1.35Z"/>
      <path class="cls-1" d="M211.13,227.82v-48.28h-11.15v56.69h13.92c-.06-.08-.12-.16-.18-.24-1.72-2.3-2.58-5.2-2.58-8.17Z"/>
    </g>
    <path class="cls-1" d="M367.6,209.77l-.21.53c-3.39,8.67-10.9,13.16-13.12,14.33-1.23.61-2.39,1.12-3.55,1.54-3.13,1.16-6.38,1.74-9.66,1.74-4.29,0-8.36-1.03-11.77-2.97-3.45-1.96-6.46-4.71-8.95-8.17-5.17-7.11-7.8-17.42-7.78-27.39v-1.81h56.13c-.18-2.72-.8-6.19-2.28-9.98-1.56-3.77-3.76-7.13-6.55-9.97-2.8-2.87-6.19-5.2-10.09-6.91-3.88-1.71-8.21-2.58-12.87-2.58-5.32,0-10.19,1.05-14.47,3.13-4.28,2.07-8.01,4.99-11.09,8.67-3.07,3.69-5.48,8.15-7.18,13.25-1.7,5.14-2.56,10.82-2.56,16.86,0,4.94.93,9.66,2.77,14.04,1.84,4.41,4.38,8.28,7.54,11.52,3.15,3.24,6.92,5.85,11.2,7.76,4.29,1.91,8.74,2.88,13.23,2.88,11.35-.02,22.56-6.91,29.47-17.07,1.49-2.19,2.74-4.57,3.72-7.05l.77-1.97-2.71-.37ZM312.63,182.89c.12-1.75.54-3.12,1.02-4.72l.31-1.04c2.1-7.19,8.49-13.21,15.9-14.97,1.45-.35,2.94-.52,4.43-.52,6.88,0,13.26,3.76,16.66,9.81,1.15,2.05,2,4.19,2.53,6.36.53,2.18.67,4,.72,6.52h-41.66l.09-1.44Z"/>
    <polygon class="cls-1" points="146.72 216.71 142.34 206.83 164.56 159.71 160.91 159.71 140.56 202.82 128.2 174.91 134.83 159.71 126.43 159.71 99.86 216.71 95.41 206.83 117.63 159.71 113.98 159.71 93.62 202.84 74.22 159.71 63.71 159.71 98.22 236.23 100.79 236.23 123.75 184.91 145.88 236.23 148.45 236.23 183.8 159.71 173.29 159.71 146.72 216.71"/>
    <path class="cls-1" d="M284.38,206.62c-1.14-2.24-2.68-4.24-4.56-5.95-1.93-1.76-4.18-3.34-6.68-4.7-2.63-1.43-5.29-2.76-7.9-3.93l-8-3.6c-2.71-1.21-5.16-2.56-7.28-4.01-2.07-1.41-3.8-3.04-5.15-4.83-2.91-4.02-1.73-7.94-1.68-8.1,1.07-3.24,3.95-8.82,11.21-9.79.01,0,1.45-.34,3.66-.34,3.35,0,8.3.78,12.88,4.49.05.04,4.91,3.99,6.5,7.98l.38.95,4.49-4.04-.41-.55c-.2-.27-5.02-6.75-10.41-9.36-.19-.1-.25-.13-.26-.13-1.91-.94-3.89-1.59-5.88-1.92-2-.33-4.09-.5-6.2-.5-3.76,0-7.39.55-10.22,1.54-2.91,1.03-5.45,2.45-7.53,4.24-2.05,1.76-3.68,3.89-4.83,6.34-1.14,2.41-1.72,5.07-1.72,7.89,0,3.04.52,5.7,1.55,7.91,1.06,2.27,2.47,4.3,4.19,6.03,1.76,1.77,3.8,3.34,6.07,4.66,2.43,1.42,4.86,2.74,7.24,3.93,2.49,1.24,4.92,2.46,7.32,3.62,2.46,1.21,4.71,2.56,6.69,4.03,2,1.49,3.65,3.22,4.9,5.14,1.15,1.65,2.01,4.83,1.77,7.36-.5,3.73-2.12,6.58-4.8,8.48-3.25,2.3-7.12,3.52-11.19,3.52-5.79.14-11.29-2.6-15.33-6.66-2.45-2.46-4.67-6-6.28-9.07l-.92-1.72-5.45,4.63c2.61,3.24,5.18,6.48,8.41,9.11,2.98,2.42,6.35,4.34,10,5.51,3.46,1.11,7.11,1.47,10.73,1.47,4.18,0,8.18-.61,11.56-1.78,3.34-1.15,6.14-2.72,8.33-4.68,2.16-1.92,3.79-4.22,4.86-6.83,1.44-3.75,2.65-10.48-.06-16.33Z"/>
  </g>
</svg>